<svg xmlns="http://www.w3.org/2000/svg" xmlns:xlink="http://www.w3.org/1999/xlink" width="1366" zoomAndPan="magnify" viewBox="0 0 1024.5 576" height="768" preserveAspectRatio="xMidYMid meet" version="1.0"><defs><g/><clipPath id="8de88a5b78"><path d="M 835.5 0.132812 L 852.578125 0.132812 L 852.578125 67.566406 L 835.5 67.566406 Z M 835.5 0.132812 " clip-rule="nonzero"/></clipPath><clipPath id="0c046b3bcf"><path d="M 0.5 0.132812 L 17.578125 0.132812 L 17.578125 67.566406 L 0.5 67.566406 Z M 0.5 0.132812 " clip-rule="nonzero"/></clipPath><clipPath id="65dc0f9418"><rect x="0" width="18" y="0" height="68"/></clipPath><clipPath id="bbc1db5196"><path d="M 810 9 L 878 9 L 878 59 L 810 59 Z M 810 9 " clip-rule="nonzero"/></clipPath><clipPath id="7417516b48"><path d="M 810.613281 24.226562 L 819.226562 9.472656 L 877.460938 43.46875 L 868.851562 58.21875 Z M 810.613281 24.226562 " clip-rule="nonzero"/></clipPath><clipPath id="072d124acc"><path d="M 0.476562 0.464844 L 67.644531 0.464844 L 67.644531 49.398438 L 0.476562 49.398438 Z M 0.476562 0.464844 " clip-rule="nonzero"/></clipPath><clipPath id="51b8ee0441"><path d="M 0.613281 15.226562 L 9.226562 0.472656 L 67.460938 34.46875 L 58.851562 49.21875 Z M 0.613281 15.226562 " clip-rule="nonzero"/></clipPath><clipPath id="b547d636ad"><rect x="0" width="68" y="0" height="50"/></clipPath><clipPath id="302e5515b0"><path d="M 810 9 L 878 9 L 878 58 L 810 58 Z M 810 9 " clip-rule="nonzero"/></clipPath><clipPath id="b9d72ed0b2"><path d="M 868.976562 9.480469 L 877.511719 24.277344 L 819.097656 57.964844 L 810.5625 43.167969 Z M 868.976562 9.480469 " clip-rule="nonzero"/></clipPath><clipPath id="c821e905dd"><path d="M 0.476562 0.464844 L 67.644531 0.464844 L 67.644531 49 L 0.476562 49 Z M 0.476562 0.464844 " clip-rule="nonzero"/></clipPath><clipPath id="70ae9210d5"><path d="M 58.976562 0.480469 L 67.511719 15.277344 L 9.097656 48.964844 L 0.5625 34.167969 Z M 58.976562 0.480469 " clip-rule="nonzero"/></clipPath><clipPath id="b775c9bb32"><rect x="0" width="68" y="0" height="49"/></clipPath><clipPath id="a85dd51905"><path d="M 494.402344 239.6875 L 501.597656 239.6875 L 501.597656 268.082031 L 494.402344 268.082031 Z M 494.402344 239.6875 " clip-rule="nonzero"/></clipPath><clipPath id="ba2191e47d"><path d="M 0.402344 0.6875 L 7.597656 0.6875 L 7.597656 29.082031 L 0.402344 29.082031 Z M 0.402344 0.6875 " clip-rule="nonzero"/></clipPath><clipPath id="c4c329709a"><rect x="0" width="8" y="0" height="30"/></clipPath><clipPath id="506e2c7418"><path d="M 483 243 L 513 243 L 513 265 L 483 265 Z M 483 243 " clip-rule="nonzero"/></clipPath><clipPath id="d6b56fef05"><path d="M 483.925781 249.828125 L 487.550781 243.617188 L 512.074219 257.933594 L 508.449219 264.144531 Z M 483.925781 249.828125 " clip-rule="nonzero"/></clipPath><clipPath id="f1e4808851"><path d="M 0.757812 0.589844 L 29.304688 0.589844 L 29.304688 21.21875 L 0.757812 21.21875 Z M 0.757812 0.589844 " clip-rule="nonzero"/></clipPath><clipPath id="8807bc22fd"><path d="M 0.925781 6.828125 L 4.550781 0.617188 L 29.074219 14.933594 L 25.449219 21.144531 Z M 0.925781 6.828125 " clip-rule="nonzero"/></clipPath><clipPath id="d3aa9858ab"><rect x="0" width="30" y="0" height="22"/></clipPath><clipPath id="6b3c7af91d"><path d="M 483 243 L 513 243 L 513 265 L 483 265 Z M 483 243 " clip-rule="nonzero"/></clipPath><clipPath id="1f57082778"><path d="M 508.5 243.621094 L 512.089844 249.855469 L 487.492188 264.039062 L 483.898438 257.808594 Z M 508.5 243.621094 " clip-rule="nonzero"/></clipPath><clipPath id="f79c782c9a"><path d="M 0.757812 0.589844 L 29.304688 0.589844 L 29.304688 21.21875 L 0.757812 21.21875 Z M 0.757812 0.589844 " clip-rule="nonzero"/></clipPath><clipPath id="0c426237a1"><path d="M 25.5 0.621094 L 29.089844 6.855469 L 4.492188 21.039062 L 0.898438 14.808594 Z M 25.5 0.621094 " clip-rule="nonzero"/></clipPath><clipPath id="66a8ae67f7"><rect x="0" width="30" y="0" height="22"/></clipPath><clipPath id="021864a80d"><rect x="0" width="996" y="0" height="275"/></clipPath></defs><g transform="matrix(1, 0, 0, 1, 14, 149)"><g clip-path="url(#021864a80d)"><g fill="#1e3a8a" fill-opacity="1"><g transform="translate(0.560493, 205.15208)"><g><path d="M 72.046875 2.0625 C 60.585938 2.0625 50.472656 0.171875 41.703125 -3.609375 C 32.929688 -7.390625 25.59375 -12.488281 19.6875 -18.90625 C 13.78125 -25.332031 9.304688 -32.554688 6.265625 -40.578125 C 3.234375 -48.609375 1.71875 -56.804688 1.71875 -65.171875 C 1.71875 -73.421875 3.207031 -81.5 6.1875 -89.40625 C 9.164062 -97.320312 13.722656 -104.460938 19.859375 -110.828125 C 25.992188 -117.191406 33.703125 -122.265625 42.984375 -126.046875 C 52.273438 -129.828125 63.222656 -131.71875 75.828125 -131.71875 C 79.148438 -131.71875 82.445312 -131.515625 85.71875 -131.109375 C 88.988281 -130.710938 92.226562 -130.226562 95.4375 -129.65625 L 95.4375 -95.609375 C 88.550781 -95.609375 81.328125 -94.289062 73.765625 -91.65625 C 66.203125 -89.019531 58.835938 -85.550781 51.671875 -81.25 C 44.503906 -76.945312 38.023438 -72.273438 32.234375 -67.234375 C 26.453125 -62.191406 21.835938 -57.257812 18.390625 -52.4375 C 14.953125 -47.625 13.234375 -43.382812 13.234375 -39.71875 C 13.234375 -36.96875 14.179688 -34.875 16.078125 -33.4375 C 17.972656 -32.007812 20.238281 -31.066406 22.875 -30.609375 C 25.507812 -30.148438 27.859375 -29.921875 29.921875 -29.921875 C 34.734375 -29.921875 40.207031 -30.519531 46.34375 -31.71875 C 52.476562 -32.925781 58.925781 -34.53125 65.6875 -36.53125 C 72.445312 -38.539062 79.238281 -40.71875 86.0625 -43.0625 C 92.882812 -45.414062 99.332031 -47.738281 105.40625 -50.03125 L 105.40625 0 C 99.5625 0.800781 93.882812 1.34375 88.375 1.625 C 82.875 1.914062 77.429688 2.0625 72.046875 2.0625 Z M 72.046875 2.0625 "/></g></g></g><g fill="#1e3a8a" fill-opacity="1"><g transform="translate(108.885028, 205.15208)"><g><path d="M 57.609375 2.0625 C 48.429688 2.0625 40.40625 0.171875 33.53125 -3.609375 C 26.65625 -7.390625 20.953125 -12.488281 16.421875 -18.90625 C 11.890625 -25.332031 8.476562 -32.5 6.1875 -40.40625 C 3.894531 -48.320312 2.75 -56.460938 2.75 -64.828125 C 2.75 -73.191406 3.894531 -81.359375 6.1875 -89.328125 C 8.476562 -97.296875 11.890625 -104.460938 16.421875 -110.828125 C 20.953125 -117.191406 26.65625 -122.265625 33.53125 -126.046875 C 40.40625 -129.828125 48.429688 -131.71875 57.609375 -131.71875 C 66.773438 -131.71875 74.796875 -129.828125 81.671875 -126.046875 C 88.554688 -122.265625 94.289062 -117.191406 98.875 -110.828125 C 103.457031 -104.460938 106.894531 -97.296875 109.1875 -89.328125 C 111.476562 -81.359375 112.625 -73.191406 112.625 -64.828125 C 112.625 -56.460938 111.476562 -48.320312 109.1875 -40.40625 C 106.894531 -32.5 103.457031 -25.332031 98.875 -18.90625 C 94.289062 -12.488281 88.554688 -7.390625 81.671875 -3.609375 C 74.796875 0.171875 66.773438 2.0625 57.609375 2.0625 Z M 89.765625 -99.21875 C 86.085938 -99.21875 81.640625 -98.300781 76.421875 -96.46875 C 71.210938 -94.632812 65.738281 -92.140625 60 -88.984375 C 54.269531 -85.828125 48.65625 -82.242188 43.15625 -78.234375 C 37.65625 -74.222656 32.671875 -70.007812 28.203125 -65.59375 C 23.734375 -61.1875 20.148438 -56.800781 17.453125 -52.4375 C 14.753906 -48.082031 13.40625 -44.015625 13.40625 -40.234375 C 13.40625 -36.679688 14.609375 -34.160156 17.015625 -32.671875 C 19.429688 -31.179688 22.242188 -30.4375 25.453125 -30.4375 C 29.234375 -30.4375 33.703125 -31.351562 38.859375 -33.1875 C 44.015625 -35.019531 49.457031 -37.507812 55.1875 -40.65625 C 60.925781 -43.8125 66.546875 -47.394531 72.046875 -51.40625 C 77.546875 -55.425781 82.5625 -59.640625 87.09375 -64.046875 C 91.625 -68.460938 95.234375 -72.875 97.921875 -77.28125 C 100.617188 -81.695312 101.96875 -85.800781 101.96875 -89.59375 C 101.96875 -93.144531 100.734375 -95.632812 98.265625 -97.0625 C 95.804688 -98.5 92.972656 -99.21875 89.765625 -99.21875 Z M 89.765625 -99.21875 "/></g></g></g><g fill="#1e3a8a" fill-opacity="1"><g transform="translate(224.08731, 205.15208)"><g><path d="M 3.4375 0 C 7.101562 -9.96875 9.96875 -20.710938 12.03125 -32.234375 C 14.09375 -43.753906 15.125 -55.421875 15.125 -67.234375 C 15.125 -77.890625 14.175781 -88.519531 12.28125 -99.125 C 10.394531 -109.726562 7.445312 -119.90625 3.4375 -129.65625 C 7.90625 -130.34375 12.347656 -130.859375 16.765625 -131.203125 C 21.179688 -131.546875 26.710938 -131.71875 33.359375 -131.71875 C 52.273438 -131.71875 66.117188 -129.109375 74.890625 -123.890625 C 83.660156 -118.671875 88.046875 -112.050781 88.046875 -104.03125 C 88.046875 -100.707031 87.410156 -97.125 86.140625 -93.28125 C 84.878906 -89.445312 83.445312 -85.492188 81.84375 -81.421875 C 80.238281 -77.347656 78.804688 -73.332031 77.546875 -69.375 C 76.285156 -65.425781 75.65625 -61.617188 75.65625 -57.953125 C 75.65625 -52.898438 77.460938 -48.394531 81.078125 -44.4375 C 84.691406 -40.488281 91.539062 -37.539062 101.625 -35.59375 C 99.445312 -49.238281 97.410156 -64 95.515625 -79.875 C 93.628906 -95.75 92.34375 -112.34375 91.65625 -129.65625 L 123.296875 -129.65625 C 120.421875 -116.8125 117.835938 -104.367188 115.546875 -92.328125 C 113.253906 -80.296875 112.109375 -68.207031 112.109375 -56.0625 C 112.109375 -47 112.9375 -37.851562 114.59375 -28.625 C 116.257812 -19.394531 119.160156 -9.851562 123.296875 0 L 58.640625 0 C 54.859375 -6.070312 52.160156 -11.832031 50.546875 -17.28125 C 48.941406 -22.726562 48.140625 -27.800781 48.140625 -32.5 C 48.140625 -39.03125 49.257812 -44.988281 51.5 -50.375 C 53.738281 -55.769531 56.546875 -60.703125 59.921875 -65.171875 C 63.304688 -69.640625 66.660156 -73.648438 69.984375 -77.203125 C 73.304688 -80.753906 76.082031 -83.9375 78.3125 -86.75 C 80.550781 -89.5625 81.671875 -92.054688 81.671875 -94.234375 C 81.671875 -96.296875 80.953125 -97.640625 79.515625 -98.265625 C 78.085938 -98.898438 76.515625 -99.21875 74.796875 -99.21875 C 71.929688 -99.21875 68.40625 -98.554688 64.21875 -97.234375 C 60.039062 -95.921875 55.742188 -93.890625 51.328125 -91.140625 C 46.910156 -88.390625 42.753906 -84.890625 38.859375 -80.640625 C 34.960938 -76.398438 31.8125 -71.441406 29.40625 -65.765625 C 27 -60.097656 25.796875 -53.59375 25.796875 -46.25 C 25.796875 -39.832031 26.96875 -32.78125 29.3125 -25.09375 C 31.664062 -17.414062 35.648438 -9.050781 41.265625 0 Z M 3.4375 0 "/></g></g></g><g fill="#1e3a8a" fill-opacity="1"><g transform="translate(350.809807, 205.15208)"><g><path d="M 3.4375 0 C 7.101562 -9.96875 9.96875 -20.710938 12.03125 -32.234375 C 14.09375 -43.753906 15.125 -55.421875 15.125 -67.234375 C 15.125 -77.890625 14.175781 -88.519531 12.28125 -99.125 C 10.394531 -109.726562 7.445312 -119.90625 3.4375 -129.65625 C 7.90625 -130.34375 12.347656 -130.859375 16.765625 -131.203125 C 21.179688 -131.546875 26.710938 -131.71875 33.359375 -131.71875 C 52.273438 -131.71875 66.117188 -129.109375 74.890625 -123.890625 C 83.660156 -118.671875 88.046875 -112.050781 88.046875 -104.03125 C 88.046875 -100.707031 87.410156 -97.125 86.140625 -93.28125 C 84.878906 -89.445312 83.445312 -85.492188 81.84375 -81.421875 C 80.238281 -77.347656 78.804688 -73.332031 77.546875 -69.375 C 76.285156 -65.425781 75.65625 -61.617188 75.65625 -57.953125 C 75.65625 -52.898438 77.460938 -48.394531 81.078125 -44.4375 C 84.691406 -40.488281 91.539062 -37.539062 101.625 -35.59375 C 99.445312 -49.238281 97.410156 -64 95.515625 -79.875 C 93.628906 -95.75 92.34375 -112.34375 91.65625 -129.65625 L 123.296875 -129.65625 C 120.421875 -116.8125 117.835938 -104.367188 115.546875 -92.328125 C 113.253906 -80.296875 112.109375 -68.207031 112.109375 -56.0625 C 112.109375 -47 112.9375 -37.851562 114.59375 -28.625 C 116.257812 -19.394531 119.160156 -9.851562 123.296875 0 L 58.640625 0 C 54.859375 -6.070312 52.160156 -11.832031 50.546875 -17.28125 C 48.941406 -22.726562 48.140625 -27.800781 48.140625 -32.5 C 48.140625 -39.03125 49.257812 -44.988281 51.5 -50.375 C 53.738281 -55.769531 56.546875 -60.703125 59.921875 -65.171875 C 63.304688 -69.640625 66.660156 -73.648438 69.984375 -77.203125 C 73.304688 -80.753906 76.082031 -83.9375 78.3125 -86.75 C 80.550781 -89.5625 81.671875 -92.054688 81.671875 -94.234375 C 81.671875 -96.296875 80.953125 -97.640625 79.515625 -98.265625 C 78.085938 -98.898438 76.515625 -99.21875 74.796875 -99.21875 C 71.929688 -99.21875 68.40625 -98.554688 64.21875 -97.234375 C 60.039062 -95.921875 55.742188 -93.890625 51.328125 -91.140625 C 46.910156 -88.390625 42.753906 -84.890625 38.859375 -80.640625 C 34.960938 -76.398438 31.8125 -71.441406 29.40625 -65.765625 C 27 -60.097656 25.796875 -53.59375 25.796875 -46.25 C 25.796875 -39.832031 26.96875 -32.78125 29.3125 -25.09375 C 31.664062 -17.414062 35.648438 -9.050781 41.265625 0 Z M 3.4375 0 "/></g></g></g><g fill="#1e3a8a" fill-opacity="1"><g transform="translate(477.532325, 205.15208)"><g><path d="M 3.4375 0 C 7.101562 -9.96875 9.96875 -20.710938 12.03125 -32.234375 C 14.09375 -43.753906 15.125 -55.421875 15.125 -67.234375 C 15.125 -77.890625 14.175781 -88.519531 12.28125 -99.125 C 10.394531 -109.726562 7.445312 -119.90625 3.4375 -129.65625 L 97.671875 -129.65625 L 97.671875 -85.625 C 96.410156 -86.207031 94 -87.242188 90.4375 -88.734375 C 86.882812 -90.222656 82.703125 -91.828125 77.890625 -93.546875 C 73.078125 -95.265625 68.148438 -96.753906 63.109375 -98.015625 C 58.066406 -99.273438 53.421875 -99.90625 49.171875 -99.90625 C 45.734375 -99.90625 42.8125 -98.703125 40.40625 -96.296875 C 38 -93.890625 36.019531 -90.878906 34.46875 -87.265625 C 32.925781 -83.648438 31.8125 -79.953125 31.125 -76.171875 C 30.4375 -72.390625 30.09375 -69.125 30.09375 -66.375 C 30.09375 -64.195312 30.460938 -62.675781 31.203125 -61.8125 C 31.953125 -60.957031 33.070312 -60.53125 34.5625 -60.53125 C 36.507812 -60.53125 38.882812 -61.128906 41.6875 -62.328125 C 44.5 -63.535156 47.65625 -64.941406 51.15625 -66.546875 C 54.65625 -68.148438 58.296875 -69.550781 62.078125 -70.75 C 65.859375 -71.957031 69.582031 -72.5625 73.25 -72.5625 C 73.820312 -72.5625 74.453125 -72.53125 75.140625 -72.46875 C 75.828125 -72.414062 76.515625 -72.332031 77.203125 -72.21875 L 77.203125 -48.140625 C 68.722656 -50.785156 61.015625 -52.910156 54.078125 -54.515625 C 47.140625 -56.117188 40.632812 -56.921875 34.5625 -56.921875 C 32.726562 -54.742188 30.953125 -52.332031 29.234375 -49.6875 C 27.515625 -47.050781 26.082031 -44.53125 24.9375 -42.125 C 23.789062 -39.71875 23.21875 -37.65625 23.21875 -35.9375 C 23.21875 -34.445312 23.90625 -33.242188 25.28125 -32.328125 C 26.65625 -31.410156 28.34375 -30.722656 30.34375 -30.265625 C 32.351562 -29.804688 34.273438 -29.519531 36.109375 -29.40625 C 37.941406 -29.289062 39.375 -29.234375 40.40625 -29.234375 C 45.101562 -29.234375 50.773438 -29.71875 57.421875 -30.6875 C 64.078125 -31.664062 70.957031 -33.070312 78.0625 -34.90625 C 85.175781 -36.738281 91.710938 -38.914062 97.671875 -41.4375 L 97.671875 0 Z M 3.4375 0 "/></g></g></g><g fill="#1e3a8a" fill-opacity="1"><g transform="translate(578.119389, 205.15208)"><g><path d="M 72.046875 2.0625 C 60.585938 2.0625 50.472656 0.171875 41.703125 -3.609375 C 32.929688 -7.390625 25.59375 -12.488281 19.6875 -18.90625 C 13.78125 -25.332031 9.304688 -32.554688 6.265625 -40.578125 C 3.234375 -48.609375 1.71875 -56.804688 1.71875 -65.171875 C 1.71875 -73.421875 3.207031 -81.5 6.1875 -89.40625 C 9.164062 -97.320312 13.722656 -104.460938 19.859375 -110.828125 C 25.992188 -117.191406 33.703125 -122.265625 42.984375 -126.046875 C 52.273438 -129.828125 63.222656 -131.71875 75.828125 -131.71875 C 79.148438 -131.71875 82.445312 -131.515625 85.71875 -131.109375 C 88.988281 -130.710938 92.226562 -130.226562 95.4375 -129.65625 L 95.4375 -95.609375 C 88.550781 -95.609375 81.328125 -94.289062 73.765625 -91.65625 C 66.203125 -89.019531 58.835938 -85.550781 51.671875 -81.25 C 44.503906 -76.945312 38.023438 -72.273438 32.234375 -67.234375 C 26.453125 -62.191406 21.835938 -57.257812 18.390625 -52.4375 C 14.953125 -47.625 13.234375 -43.382812 13.234375 -39.71875 C 13.234375 -36.96875 14.179688 -34.875 16.078125 -33.4375 C 17.972656 -32.007812 20.238281 -31.066406 22.875 -30.609375 C 25.507812 -30.148438 27.859375 -29.921875 29.921875 -29.921875 C 34.734375 -29.921875 40.207031 -30.519531 46.34375 -31.71875 C 52.476562 -32.925781 58.925781 -34.53125 65.6875 -36.53125 C 72.445312 -38.539062 79.238281 -40.71875 86.0625 -43.0625 C 92.882812 -45.414062 99.332031 -47.738281 105.40625 -50.03125 L 105.40625 0 C 99.5625 0.800781 93.882812 1.34375 88.375 1.625 C 82.875 1.914062 77.429688 2.0625 72.046875 2.0625 Z M 72.046875 2.0625 "/></g></g></g><g fill="#1e3a8a" fill-opacity="1"><g transform="translate(686.443914, 205.15208)"><g><path d="M 28.03125 0 C 25.625 -4.695312 23.929688 -9.222656 22.953125 -13.578125 C 21.984375 -17.941406 21.5 -22.1875 21.5 -26.3125 C 21.5 -33.53125 22.671875 -40.289062 25.015625 -46.59375 C 27.367188 -52.90625 30.0625 -58.722656 33.09375 -64.046875 C 36.132812 -69.378906 38.828125 -74.191406 41.171875 -78.484375 C 43.523438 -82.785156 44.703125 -86.488281 44.703125 -89.59375 C 44.703125 -92.570312 43.523438 -94.804688 41.171875 -96.296875 C 38.828125 -97.785156 36.28125 -98.53125 33.53125 -98.53125 C 29.976562 -98.53125 26.109375 -97.753906 21.921875 -96.203125 C 17.734375 -94.660156 13.773438 -92.941406 10.046875 -91.046875 C 6.328125 -89.160156 3.265625 -87.703125 0.859375 -86.671875 L 0.859375 -129.65625 L 98.703125 -129.65625 L 98.703125 -86.671875 C 97.785156 -87.359375 96.238281 -88.414062 94.0625 -89.84375 C 91.882812 -91.28125 89.300781 -92.710938 86.3125 -94.140625 C 83.332031 -95.578125 80.238281 -96.8125 77.03125 -97.84375 C 73.820312 -98.875 70.726562 -99.390625 67.75 -99.390625 C 63.96875 -99.390625 61.015625 -98.585938 58.890625 -96.984375 C 56.773438 -95.378906 55.203125 -93.285156 54.171875 -90.703125 C 53.140625 -88.128906 52.507812 -85.347656 52.28125 -82.359375 C 52.050781 -79.378906 51.9375 -76.515625 51.9375 -73.765625 C 51.9375 -64.941406 53.164062 -56.316406 55.625 -47.890625 C 58.09375 -39.460938 61.390625 -31.265625 65.515625 -23.296875 C 69.640625 -15.328125 74.050781 -7.5625 78.75 0 Z M 28.03125 0 "/></g></g></g><g fill="#1e3a8a" fill-opacity="1"><g transform="translate(785.999297, 205.15208)"><g><path d="M 3.265625 -116.75 C 3.265625 -121.226562 4.640625 -124.84375 7.390625 -127.59375 C 10.140625 -130.34375 13.8125 -131.71875 18.40625 -131.71875 C 23.21875 -131.71875 26.851562 -130.195312 29.3125 -127.15625 C 31.78125 -124.125 33.242188 -120.285156 33.703125 -115.640625 C 34.160156 -110.992188 33.726562 -106.09375 32.40625 -100.9375 C 31.09375 -95.78125 29.03125 -91.050781 26.21875 -86.75 C 23.414062 -82.445312 20.003906 -79.117188 15.984375 -76.765625 C 11.972656 -74.421875 7.503906 -73.765625 2.578125 -74.796875 L 2.578125 -94.75 C 4.753906 -93.601562 6.898438 -92.769531 9.015625 -92.25 C 11.140625 -91.738281 13.175781 -91.484375 15.125 -91.484375 C 18.34375 -91.484375 21.066406 -92 23.296875 -93.03125 C 25.535156 -94.0625 27.023438 -95.234375 27.765625 -96.546875 C 28.515625 -97.867188 28.171875 -99.046875 26.734375 -100.078125 C 25.304688 -101.109375 22.53125 -101.625 18.40625 -101.625 C 13.8125 -101.625 10.140625 -103 7.390625 -105.75 C 4.640625 -108.5 3.265625 -112.164062 3.265625 -116.75 Z M 3.265625 -116.75 "/></g></g></g><g fill="#1e3a8a" fill-opacity="1"><g transform="translate(822.795288, 205.15208)"><g><path d="M 3.609375 0 C 7.273438 -9.96875 10.109375 -20.710938 12.109375 -32.234375 C 14.117188 -43.753906 15.125 -55.421875 15.125 -67.234375 C 15.125 -77.890625 14.207031 -88.519531 12.375 -99.125 C 10.539062 -109.726562 7.617188 -119.90625 3.609375 -129.65625 L 42.46875 -129.65625 C 38.914062 -119.675781 36.078125 -108.953125 33.953125 -97.484375 C 31.835938 -86.023438 30.78125 -74.335938 30.78125 -62.421875 C 30.78125 -51.753906 31.722656 -41.117188 33.609375 -30.515625 C 35.503906 -19.910156 38.457031 -9.738281 42.46875 0 Z M 3.609375 0 "/></g></g></g><g fill="#1e3a8a" fill-opacity="1"><g transform="translate(868.704228, 205.15208)"><g><path d="M 3.4375 0 C 7.101562 -9.96875 9.96875 -20.710938 12.03125 -32.234375 C 14.09375 -43.753906 15.125 -55.421875 15.125 -67.234375 C 15.125 -77.890625 14.175781 -88.519531 12.28125 -99.125 C 10.394531 -109.726562 7.445312 -119.90625 3.4375 -129.65625 C 7.90625 -130.34375 12.347656 -130.859375 16.765625 -131.203125 C 21.179688 -131.546875 26.710938 -131.71875 33.359375 -131.71875 C 52.273438 -131.71875 66.117188 -129.109375 74.890625 -123.890625 C 83.660156 -118.671875 88.046875 -112.050781 88.046875 -104.03125 C 88.046875 -100.707031 87.410156 -97.125 86.140625 -93.28125 C 84.878906 -89.445312 83.445312 -85.492188 81.84375 -81.421875 C 80.238281 -77.347656 78.804688 -73.332031 77.546875 -69.375 C 76.285156 -65.425781 75.65625 -61.617188 75.65625 -57.953125 C 75.65625 -52.898438 77.460938 -48.394531 81.078125 -44.4375 C 84.691406 -40.488281 91.539062 -37.539062 101.625 -35.59375 C 99.445312 -49.238281 97.410156 -64 95.515625 -79.875 C 93.628906 -95.75 92.34375 -112.34375 91.65625 -129.65625 L 123.296875 -129.65625 C 120.421875 -116.8125 117.835938 -104.367188 115.546875 -92.328125 C 113.253906 -80.296875 112.109375 -68.207031 112.109375 -56.0625 C 112.109375 -47 112.9375 -37.851562 114.59375 -28.625 C 116.257812 -19.394531 119.160156 -9.851562 123.296875 0 L 58.640625 0 C 54.859375 -6.070312 52.160156 -11.832031 50.546875 -17.28125 C 48.941406 -22.726562 48.140625 -27.800781 48.140625 -32.5 C 48.140625 -39.03125 49.257812 -44.988281 51.5 -50.375 C 53.738281 -55.769531 56.546875 -60.703125 59.921875 -65.171875 C 63.304688 -69.640625 66.660156 -73.648438 69.984375 -77.203125 C 73.304688 -80.753906 76.082031 -83.9375 78.3125 -86.75 C 80.550781 -89.5625 81.671875 -92.054688 81.671875 -94.234375 C 81.671875 -96.296875 80.953125 -97.640625 79.515625 -98.265625 C 78.085938 -98.898438 76.515625 -99.21875 74.796875 -99.21875 C 71.929688 -99.21875 68.40625 -98.554688 64.21875 -97.234375 C 60.039062 -95.921875 55.742188 -93.890625 51.328125 -91.140625 C 46.910156 -88.390625 42.753906 -84.890625 38.859375 -80.640625 C 34.960938 -76.398438 31.8125 -71.441406 29.40625 -65.765625 C 27 -60.097656 25.796875 -53.59375 25.796875 -46.25 C 25.796875 -39.832031 26.96875 -32.78125 29.3125 -25.09375 C 31.664062 -17.414062 35.648438 -9.050781 41.265625 0 Z M 3.4375 0 "/></g></g></g><g clip-path="url(#8de88a5b78)"><g transform="matrix(1, 0, 0, 1, 835, -0.000000000000056843)"><g clip-path="url(#65dc0f9418)"><g clip-path="url(#0c046b3bcf)"><path fill="#f8c193" d="M 0.5 0.132812 L 17.578125 0.132812 L 17.578125 67.589844 L 0.5 67.589844 Z M 0.5 0.132812 " fill-opacity="1" fill-rule="nonzero"/></g></g></g></g><g clip-path="url(#bbc1db5196)"><g clip-path="url(#7417516b48)"><g transform="matrix(1, 0, 0, 1, 810, 9)"><g clip-path="url(#b547d636ad)"><g clip-path="url(#072d124acc)"><g clip-path="url(#51b8ee0441)"><path fill="#f8c193" d="M 0.613281 15.226562 L 9.226562 0.472656 L 67.480469 34.480469 L 58.871094 49.230469 Z M 0.613281 15.226562 " fill-opacity="1" fill-rule="nonzero"/></g></g></g></g></g></g><g clip-path="url(#302e5515b0)"><g clip-path="url(#b9d72ed0b2)"><g transform="matrix(1, 0, 0, 1, 810, 9)"><g clip-path="url(#b775c9bb32)"><g clip-path="url(#c821e905dd)"><g clip-path="url(#70ae9210d5)"><path fill="#f8c193" d="M 58.976562 0.480469 L 67.511719 15.277344 L 9.078125 48.976562 L 0.542969 34.179688 Z M 58.976562 0.480469 " fill-opacity="1" fill-rule="nonzero"/></g></g></g></g></g></g><g clip-path="url(#a85dd51905)"><g transform="matrix(1, 0, 0, 1, 494, 239)"><g clip-path="url(#c4c329709a)"><g clip-path="url(#ba2191e47d)"><path fill="#1e3a8a" d="M 0.402344 0.6875 L 7.597656 0.6875 L 7.597656 29.09375 L 0.402344 29.09375 Z M 0.402344 0.6875 " fill-opacity="1" fill-rule="nonzero"/></g></g></g></g><g clip-path="url(#506e2c7418)"><g clip-path="url(#d6b56fef05)"><g transform="matrix(1, 0, 0, 1, 483, 243)"><g clip-path="url(#d3aa9858ab)"><g clip-path="url(#f1e4808851)"><g clip-path="url(#8807bc22fd)"><path fill="#1e3a8a" d="M 0.925781 6.828125 L 4.550781 0.617188 L 29.085938 14.9375 L 25.457031 21.148438 Z M 0.925781 6.828125 " fill-opacity="1" fill-rule="nonzero"/></g></g></g></g></g></g><g clip-path="url(#6b3c7af91d)"><g clip-path="url(#1f57082778)"><g transform="matrix(1, 0, 0, 1, 483, 243)"><g clip-path="url(#66a8ae67f7)"><g clip-path="url(#f79c782c9a)"><g clip-path="url(#0c426237a1)"><path fill="#1e3a8a" d="M 25.5 0.621094 L 29.089844 6.855469 L 4.484375 21.042969 L 0.890625 14.8125 Z M 25.5 0.621094 " fill-opacity="1" fill-rule="nonzero"/></g></g></g></g></g></g><g fill="#1e3a8a" fill-opacity="1"><g transform="translate(261.989746, 265.57752)"><g><path d="M 6.25 0 L 3.25 0 L 3.25 -26.546875 L 15.96875 -26.546875 C 18.664062 -26.546875 20.832031 -25.800781 22.46875 -24.3125 C 24.09375 -22.832031 24.90625 -20.8125 24.90625 -18.25 C 24.90625 -14.9375 23.53125 -12.675781 20.78125 -11.46875 C 20 -11.125 19.234375 -10.867188 18.484375 -10.703125 L 25.46875 0 L 21.90625 0 L 15.484375 -10.1875 L 6.25 -10.1875 Z M 6.25 -13.03125 L 15.4375 -13.03125 C 18.269531 -13.03125 20.222656 -13.914062 21.296875 -15.6875 C 21.703125 -16.351562 21.90625 -17.207031 21.90625 -18.25 C 21.90625 -19.9375 21.328125 -21.265625 20.171875 -22.234375 C 19.023438 -23.210938 17.503906 -23.703125 15.609375 -23.703125 L 6.25 -23.703125 Z M 6.25 -13.03125 "/></g></g></g><g fill="#1e3a8a" fill-opacity="1"><g transform="translate(294.507208, 265.57752)"><g><path d="M 6.25 -23.671875 L 6.25 -14.765625 L 21.015625 -14.765625 L 21.015625 -11.828125 L 6.25 -11.828125 L 6.25 -2.890625 L 22.78125 -2.890625 L 22.78125 0 L 3.25 0 L 3.25 -26.546875 L 22.78125 -26.546875 L 22.78125 -23.671875 Z M 13.15625 -32.890625 L 17.453125 -32.890625 L 13.15625 -28.671875 L 10.71875 -28.671875 Z M 13.15625 -32.890625 "/></g></g></g><g fill="#1e3a8a" fill-opacity="1"><g transform="translate(324.578985, 265.57752)"><g><path d="M 6.296875 -22.46875 C 5.785156 -22.03125 5.441406 -21.546875 5.265625 -21.015625 C 5.097656 -20.484375 5.015625 -19.914062 5.015625 -19.3125 C 5.015625 -18.707031 5.273438 -18.148438 5.796875 -17.640625 C 6.316406 -17.140625 7.003906 -16.710938 7.859375 -16.359375 C 8.710938 -16.015625 9.6875 -15.707031 10.78125 -15.4375 C 11.882812 -15.175781 13.003906 -14.90625 14.140625 -14.625 C 15.273438 -14.34375 16.390625 -14.019531 17.484375 -13.65625 C 18.578125 -13.289062 19.554688 -12.832031 20.421875 -12.28125 C 22.316406 -11.070312 23.265625 -9.425781 23.265625 -7.34375 C 23.265625 -4.851562 22.332031 -2.953125 20.46875 -1.640625 C 18.613281 -0.328125 16.039062 0.328125 12.75 0.328125 C 9.03125 0.328125 6.195312 -0.445312 4.25 -2 C 2.507812 -3.394531 1.519531 -5.375 1.28125 -7.9375 L 4.40625 -7.9375 C 4.519531 -6.125 5.40625 -4.734375 7.0625 -3.765625 C 8.5 -2.941406 10.410156 -2.53125 12.796875 -2.53125 C 17.765625 -2.53125 20.25 -4.09375 20.25 -7.21875 C 20.25 -8.289062 19.800781 -9.132812 18.90625 -9.75 C 18.007812 -10.363281 16.882812 -10.867188 15.53125 -11.265625 C 14.1875 -11.671875 12.734375 -12.046875 11.171875 -12.390625 C 9.609375 -12.742188 8.148438 -13.191406 6.796875 -13.734375 C 5.441406 -14.285156 4.316406 -15.007812 3.421875 -15.90625 C 2.523438 -16.800781 2.078125 -18.007812 2.078125 -19.53125 C 2.078125 -21.695312 2.90625 -23.460938 4.5625 -24.828125 C 6.226562 -26.191406 8.734375 -26.875 12.078125 -26.875 C 15.441406 -26.875 18.046875 -26.097656 19.890625 -24.546875 C 21.578125 -23.179688 22.472656 -21.429688 22.578125 -19.296875 L 19.5 -19.296875 C 19.226562 -21.484375 17.804688 -22.941406 15.234375 -23.671875 C 14.328125 -23.929688 13.195312 -24.0625 11.84375 -24.0625 C 10.5 -24.0625 9.363281 -23.90625 8.4375 -23.59375 C 7.519531 -23.289062 6.804688 -22.914062 6.296875 -22.46875 Z M 6.296875 -22.46875 "/></g></g></g><g fill="#1e3a8a" fill-opacity="1"><g transform="translate(354.931411, 265.57752)"><g><path d="M 6.25 -23.671875 L 6.25 -14.765625 L 21.015625 -14.765625 L 21.015625 -11.828125 L 6.25 -11.828125 L 6.25 -2.890625 L 22.78125 -2.890625 L 22.78125 0 L 3.25 0 L 3.25 -26.546875 L 22.78125 -26.546875 L 22.78125 -23.671875 Z M 6.25 -23.671875 "/></g></g></g><g fill="#1e3a8a" fill-opacity="1"><g transform="translate(385.003188, 265.57752)"><g><path d="M 26.4375 0 L 23.109375 0 L 19.859375 -7.703125 L 6.703125 -7.703125 L 3.453125 0 L 0.125 0 L 11.390625 -26.546875 L 15.15625 -26.546875 Z M 18.6875 -10.46875 L 13.28125 -23.421875 L 7.859375 -10.46875 Z M 18.6875 -10.46875 "/></g></g></g><g fill="#1e3a8a" fill-opacity="1"><g transform="translate(417.240002, 265.57752)"><g><path d="M 25.515625 -26.546875 L 25.515625 -11.4375 C 25.515625 -7.90625 24.460938 -5.0625 22.359375 -2.90625 C 20.265625 -0.75 17.546875 0.328125 14.203125 0.328125 C 10.878906 0.328125 8.164062 -0.75 6.0625 -2.90625 C 3.96875 -5.0625 2.921875 -7.90625 2.921875 -11.4375 L 2.921875 -26.546875 L 5.9375 -26.546875 L 5.9375 -11.34375 C 5.9375 -8.488281 6.789062 -6.257812 8.5 -4.65625 C 9.96875 -3.289062 11.867188 -2.609375 14.203125 -2.609375 C 16.523438 -2.609375 18.4375 -3.289062 19.9375 -4.65625 C 21.644531 -6.226562 22.5 -8.457031 22.5 -11.34375 L 22.5 -26.546875 Z M 25.515625 -26.546875 "/></g></g></g><g fill="#1e3a8a" fill-opacity="1"><g transform="translate(451.361369, 265.57752)"><g/></g></g><g fill="#1e3a8a" fill-opacity="1"><g transform="translate(465.596308, 265.57752)"><g/></g></g><g fill="#1e3a8a" fill-opacity="1"><g transform="translate(479.831246, 265.57752)"><g/></g></g><g fill="#1e3a8a" fill-opacity="1"><g transform="translate(494.066185, 265.57752)"><g/></g></g><g fill="#1e3a8a" fill-opacity="1"><g transform="translate(508.301124, 265.57752)"><g/></g></g><g fill="#1e3a8a" fill-opacity="1"><g transform="translate(522.536062, 265.57752)"><g/></g></g><g fill="#1e3a8a" fill-opacity="1"><g transform="translate(536.771001, 265.57752)"><g/></g></g><g fill="#1e3a8a" fill-opacity="1"><g transform="translate(551.01316, 265.57752)"><g><path d="M 6.296875 -22.46875 C 5.785156 -22.03125 5.441406 -21.546875 5.265625 -21.015625 C 5.097656 -20.484375 5.015625 -19.914062 5.015625 -19.3125 C 5.015625 -18.707031 5.273438 -18.148438 5.796875 -17.640625 C 6.316406 -17.140625 7.003906 -16.710938 7.859375 -16.359375 C 8.710938 -16.015625 9.6875 -15.707031 10.78125 -15.4375 C 11.882812 -15.175781 13.003906 -14.90625 14.140625 -14.625 C 15.273438 -14.34375 16.390625 -14.019531 17.484375 -13.65625 C 18.578125 -13.289062 19.554688 -12.832031 20.421875 -12.28125 C 22.316406 -11.070312 23.265625 -9.425781 23.265625 -7.34375 C 23.265625 -4.851562 22.332031 -2.953125 20.46875 -1.640625 C 18.613281 -0.328125 16.039062 0.328125 12.75 0.328125 C 9.03125 0.328125 6.195312 -0.445312 4.25 -2 C 2.507812 -3.394531 1.519531 -5.375 1.28125 -7.9375 L 4.40625 -7.9375 C 4.519531 -6.125 5.40625 -4.734375 7.0625 -3.765625 C 8.5 -2.941406 10.410156 -2.53125 12.796875 -2.53125 C 17.765625 -2.53125 20.25 -4.09375 20.25 -7.21875 C 20.25 -8.289062 19.800781 -9.132812 18.90625 -9.75 C 18.007812 -10.363281 16.882812 -10.867188 15.53125 -11.265625 C 14.1875 -11.671875 12.734375 -12.046875 11.171875 -12.390625 C 9.609375 -12.742188 8.148438 -13.191406 6.796875 -13.734375 C 5.441406 -14.285156 4.316406 -15.007812 3.421875 -15.90625 C 2.523438 -16.800781 2.078125 -18.007812 2.078125 -19.53125 C 2.078125 -21.695312 2.90625 -23.460938 4.5625 -24.828125 C 6.226562 -26.191406 8.734375 -26.875 12.078125 -26.875 C 15.441406 -26.875 18.046875 -26.097656 19.890625 -24.546875 C 21.578125 -23.179688 22.472656 -21.429688 22.578125 -19.296875 L 19.5 -19.296875 C 19.226562 -21.484375 17.804688 -22.941406 15.234375 -23.671875 C 14.328125 -23.929688 13.195312 -24.0625 11.84375 -24.0625 C 10.5 -24.0625 9.363281 -23.90625 8.4375 -23.59375 C 7.519531 -23.289062 6.804688 -22.914062 6.296875 -22.46875 Z M 6.296875 -22.46875 "/></g></g></g><g fill="#1e3a8a" fill-opacity="1"><g transform="translate(581.365586, 265.57752)"><g><path d="M 15.046875 -26.875 C 19.003906 -26.875 22.25 -25.550781 24.78125 -22.90625 C 27.269531 -20.332031 28.515625 -17.117188 28.515625 -13.265625 C 28.515625 -9.421875 27.269531 -6.21875 24.78125 -3.65625 C 22.25 -1 19.003906 0.328125 15.046875 0.328125 C 11.085938 0.328125 7.835938 -1 5.296875 -3.65625 C 2.804688 -6.21875 1.5625 -9.421875 1.5625 -13.265625 C 1.5625 -17.117188 2.804688 -20.332031 5.296875 -22.90625 C 7.835938 -25.550781 11.085938 -26.875 15.046875 -26.875 Z M 15.046875 -2.609375 C 18.203125 -2.609375 20.753906 -3.640625 22.703125 -5.703125 C 24.578125 -7.671875 25.515625 -10.195312 25.515625 -13.28125 C 25.515625 -16.351562 24.578125 -18.878906 22.703125 -20.859375 C 20.753906 -22.910156 18.203125 -23.9375 15.046875 -23.9375 C 11.890625 -23.9375 9.332031 -22.910156 7.375 -20.859375 C 5.507812 -18.878906 4.578125 -16.351562 4.578125 -13.28125 C 4.578125 -10.195312 5.507812 -7.671875 7.375 -5.703125 C 9.332031 -3.640625 11.890625 -2.609375 15.046875 -2.609375 Z M 15.046875 -2.609375 "/></g></g></g><g fill="#1e3a8a" fill-opacity="1"><g transform="translate(617.13061, 265.57752)"><g><path d="M 15.078125 -2.609375 C 16.972656 -2.609375 18.632812 -3.085938 20.0625 -4.046875 C 21.5 -5.015625 22.566406 -6.3125 23.265625 -7.9375 L 26.4375 -7.9375 C 25.550781 -5.425781 24.09375 -3.445312 22.0625 -2 C 19.894531 -0.445312 17.34375 0.328125 14.40625 0.328125 C 10.519531 0.328125 7.375 -1 4.96875 -3.65625 C 2.695312 -6.1875 1.5625 -9.390625 1.5625 -13.265625 C 1.5625 -17.148438 2.695312 -20.363281 4.96875 -22.90625 C 7.375 -25.550781 10.519531 -26.875 14.40625 -26.875 C 17.34375 -26.875 19.894531 -26.097656 22.0625 -24.546875 C 24.09375 -23.097656 25.550781 -21.117188 26.4375 -18.609375 L 23.265625 -18.609375 C 22.566406 -20.242188 21.5 -21.539062 20.0625 -22.5 C 18.632812 -23.457031 16.972656 -23.9375 15.078125 -23.9375 C 13.179688 -23.9375 11.601562 -23.660156 10.34375 -23.109375 C 9.09375 -22.566406 8.035156 -21.816406 7.171875 -20.859375 C 5.441406 -18.898438 4.578125 -16.375 4.578125 -13.28125 C 4.578125 -10.175781 5.441406 -7.648438 7.171875 -5.703125 C 8.992188 -3.640625 11.628906 -2.609375 15.078125 -2.609375 Z M 15.078125 -2.609375 "/></g></g></g><g fill="#1e3a8a" fill-opacity="1"><g transform="translate(650.49003, 265.57752)"><g><path d="M 6.25 0 L 3.25 0 L 3.25 -26.546875 L 6.25 -26.546875 Z M 6.25 0 "/></g></g></g><g fill="#1e3a8a" fill-opacity="1"><g transform="translate(665.68721, 265.57752)"><g><path d="M 26.4375 0 L 23.109375 0 L 19.859375 -7.703125 L 6.703125 -7.703125 L 3.453125 0 L 0.125 0 L 11.390625 -26.546875 L 15.15625 -26.546875 Z M 18.6875 -10.46875 L 13.28125 -23.421875 L 7.859375 -10.46875 Z M 18.6875 -10.46875 "/></g></g></g><g fill="#1e3a8a" fill-opacity="1"><g transform="translate(697.924024, 265.57752)"><g><path d="M 6.25 -26.546875 L 6.25 -2.890625 L 20.734375 -2.890625 L 20.734375 0 L 3.25 0 L 3.25 -26.546875 Z M 6.25 -26.546875 "/></g></g></g></g></g></svg>