<svg xmlns="http://www.w3.org/2000/svg" xmlns:xlink="http://www.w3.org/1999/xlink" width="100" zoomAndPan="magnify" viewBox="0 0 75 60" height="80" preserveAspectRatio="xMidYMid meet" version="1.0"><defs><g/><clipPath id="b7c42e01de"><path d="M 0.398438 2 L 58.71875 2 L 58.71875 47.199219 L 0.398438 47.199219 Z M 0.398438 2 " clip-rule="nonzero"/></clipPath><clipPath id="d5cedee3d3"><path d="M 0.398438 11 L 20 11 L 20 36 L 0.398438 36 Z M 0.398438 11 " clip-rule="nonzero"/></clipPath><clipPath id="e9912af4a3"><rect x="0" width="59" y="0" height="46"/></clipPath><clipPath id="66d1ce3b4b"><path d="M 29.46875 0.542969 L 32.378906 0.542969 L 32.378906 12.027344 L 29.46875 12.027344 Z M 29.46875 0.542969 " clip-rule="nonzero"/></clipPath><clipPath id="fcb1e1d62d"><path d="M 0.46875 0.542969 L 3.378906 0.542969 L 3.378906 12.027344 L 0.46875 12.027344 Z M 0.46875 0.542969 " clip-rule="nonzero"/></clipPath><clipPath id="5980b1273a"><rect x="0" width="4" y="0" height="13"/></clipPath><clipPath id="38692d1ab4"><path d="M 25 2 L 37 2 L 37 11 L 25 11 Z M 25 2 " clip-rule="nonzero"/></clipPath><clipPath id="e3e48ec897"><path d="M 25.230469 4.644531 L 26.699219 2.132812 L 36.617188 7.921875 L 35.152344 10.433594 Z M 25.230469 4.644531 " clip-rule="nonzero"/></clipPath><clipPath id="b6dd76ccd8"><path d="M 0.121094 0.078125 L 11.640625 0.078125 L 11.640625 8.480469 L 0.121094 8.480469 Z M 0.121094 0.078125 " clip-rule="nonzero"/></clipPath><clipPath id="d9d9760c6a"><path d="M 0.230469 2.644531 L 1.699219 0.132812 L 11.617188 5.921875 L 10.152344 8.433594 Z M 0.230469 2.644531 " clip-rule="nonzero"/></clipPath><clipPath id="f92089763a"><rect x="0" width="12" y="0" height="9"/></clipPath><clipPath id="32e16cd9c4"><path d="M 25 2 L 37 2 L 37 11 L 25 11 Z M 25 2 " clip-rule="nonzero"/></clipPath><clipPath id="c09f23fe2f"><path d="M 35.171875 2.132812 L 36.625 4.652344 L 26.675781 10.390625 L 25.222656 7.871094 Z M 35.171875 2.132812 " clip-rule="nonzero"/></clipPath><clipPath id="77ba1d2627"><path d="M 0.121094 0.078125 L 11.640625 0.078125 L 11.640625 8.480469 L 0.121094 8.480469 Z M 0.121094 0.078125 " clip-rule="nonzero"/></clipPath><clipPath id="a4c51ff69f"><path d="M 10.171875 0.132812 L 11.625 2.652344 L 1.675781 8.390625 L 0.222656 5.871094 Z M 10.171875 0.132812 " clip-rule="nonzero"/></clipPath><clipPath id="6bb73ae978"><rect x="0" width="12" y="0" height="9"/></clipPath><clipPath id="03bbf35f9f"><rect x="0" width="59" y="0" height="48"/></clipPath></defs><g transform="matrix(1, 0, 0, 1, 8, 8)"><g clip-path="url(#03bbf35f9f)"><g clip-path="url(#b7c42e01de)"><g transform="matrix(1, 0, 0, 1, 0, 2)"><g clip-path="url(#e9912af4a3)"><g clip-path="url(#d5cedee3d3)"><g fill="#1e3a8a" fill-opacity="1"><g transform="translate(0.487161, 35.151765)"><g><path d="M 13.15625 0.375 C 11.0625 0.375 9.210938 0.03125 7.609375 -0.65625 C 6.015625 -1.351562 4.675781 -2.285156 3.59375 -3.453125 C 2.519531 -4.628906 1.703125 -5.945312 1.140625 -7.40625 C 0.585938 -8.875 0.3125 -10.375 0.3125 -11.90625 C 0.3125 -13.414062 0.582031 -14.890625 1.125 -16.328125 C 1.675781 -17.773438 2.507812 -19.078125 3.625 -20.234375 C 4.75 -21.398438 6.15625 -22.328125 7.84375 -23.015625 C 9.539062 -23.710938 11.539062 -24.0625 13.84375 -24.0625 C 14.457031 -24.0625 15.0625 -24.023438 15.65625 -23.953125 C 16.25 -23.878906 16.84375 -23.789062 17.4375 -23.6875 L 17.4375 -17.46875 C 16.175781 -17.46875 14.851562 -17.222656 13.46875 -16.734375 C 12.09375 -16.253906 10.75 -15.617188 9.4375 -14.828125 C 8.125 -14.046875 6.9375 -13.191406 5.875 -12.265625 C 4.820312 -11.347656 3.984375 -10.453125 3.359375 -9.578125 C 2.734375 -8.703125 2.421875 -7.925781 2.421875 -7.25 C 2.421875 -6.75 2.59375 -6.367188 2.9375 -6.109375 C 3.28125 -5.847656 3.691406 -5.675781 4.171875 -5.59375 C 4.660156 -5.507812 5.09375 -5.46875 5.46875 -5.46875 C 6.34375 -5.46875 7.335938 -5.578125 8.453125 -5.796875 C 9.578125 -6.015625 10.753906 -6.304688 11.984375 -6.671875 C 13.222656 -7.035156 14.46875 -7.429688 15.71875 -7.859375 C 16.96875 -8.296875 18.144531 -8.722656 19.25 -9.140625 L 19.25 0 C 18.1875 0.144531 17.148438 0.242188 16.140625 0.296875 C 15.140625 0.347656 14.144531 0.375 13.15625 0.375 Z M 13.15625 0.375 "/></g></g></g></g><g fill="#1e3a8a" fill-opacity="1"><g transform="translate(20.268078, 35.151765)"><g><path d="M 0.59375 -21.328125 C 0.59375 -22.140625 0.84375 -22.796875 1.34375 -23.296875 C 1.851562 -23.804688 2.523438 -24.0625 3.359375 -24.0625 C 4.234375 -24.0625 4.894531 -23.78125 5.34375 -23.21875 C 5.800781 -22.664062 6.070312 -21.960938 6.15625 -21.109375 C 6.238281 -20.265625 6.160156 -19.367188 5.921875 -18.421875 C 5.679688 -17.484375 5.300781 -16.625 4.78125 -15.84375 C 4.269531 -15.0625 3.648438 -14.453125 2.921875 -14.015625 C 2.191406 -13.585938 1.375 -13.46875 0.46875 -13.65625 L 0.46875 -17.3125 C 0.863281 -17.09375 1.253906 -16.9375 1.640625 -16.84375 C 2.035156 -16.75 2.410156 -16.703125 2.765625 -16.703125 C 3.347656 -16.703125 3.84375 -16.796875 4.25 -16.984375 C 4.664062 -17.171875 4.941406 -17.382812 5.078125 -17.625 C 5.210938 -17.875 5.144531 -18.09375 4.875 -18.28125 C 4.613281 -18.46875 4.109375 -18.5625 3.359375 -18.5625 C 2.523438 -18.5625 1.851562 -18.8125 1.34375 -19.3125 C 0.84375 -19.8125 0.59375 -20.484375 0.59375 -21.328125 Z M 0.59375 -21.328125 "/></g></g></g><g fill="#1e3a8a" fill-opacity="1"><g transform="translate(26.987309, 35.151765)"><g><path d="M 0.65625 0 C 1.332031 -1.820312 1.851562 -3.785156 2.21875 -5.890625 C 2.582031 -7.992188 2.765625 -10.125 2.765625 -12.28125 C 2.765625 -14.226562 2.597656 -16.171875 2.265625 -18.109375 C 1.929688 -20.046875 1.394531 -21.90625 0.65625 -23.6875 L 7.75 -23.6875 C 7.101562 -21.863281 6.585938 -19.90625 6.203125 -17.8125 C 5.816406 -15.71875 5.625 -13.582031 5.625 -11.40625 C 5.625 -9.457031 5.796875 -7.515625 6.140625 -5.578125 C 6.484375 -3.640625 7.019531 -1.78125 7.75 0 Z M 0.65625 0 "/></g></g></g><g fill="#1e3a8a" fill-opacity="1"><g transform="translate(35.37065, 35.151765)"><g><path d="M 0.625 0 C 1.300781 -1.820312 1.828125 -3.785156 2.203125 -5.890625 C 2.578125 -7.992188 2.765625 -10.125 2.765625 -12.28125 C 2.765625 -14.226562 2.59375 -16.171875 2.25 -18.109375 C 1.90625 -20.046875 1.363281 -21.90625 0.625 -23.6875 C 1.445312 -23.8125 2.257812 -23.90625 3.0625 -23.96875 C 3.863281 -24.03125 4.875 -24.0625 6.09375 -24.0625 C 9.550781 -24.0625 12.078125 -23.582031 13.671875 -22.625 C 15.273438 -21.675781 16.078125 -20.46875 16.078125 -19 C 16.078125 -18.394531 15.960938 -17.738281 15.734375 -17.03125 C 15.503906 -16.332031 15.242188 -15.609375 14.953125 -14.859375 C 14.660156 -14.117188 14.394531 -13.390625 14.15625 -12.671875 C 13.925781 -11.953125 13.8125 -11.253906 13.8125 -10.578125 C 13.8125 -9.660156 14.140625 -8.835938 14.796875 -8.109375 C 15.460938 -7.390625 16.71875 -6.851562 18.5625 -6.5 C 18.164062 -8.988281 17.789062 -11.679688 17.4375 -14.578125 C 17.09375 -17.484375 16.859375 -20.519531 16.734375 -23.6875 L 22.515625 -23.6875 C 21.992188 -21.332031 21.523438 -19.054688 21.109375 -16.859375 C 20.691406 -14.660156 20.484375 -12.453125 20.484375 -10.234375 C 20.484375 -8.578125 20.632812 -6.90625 20.9375 -5.21875 C 21.238281 -3.539062 21.765625 -1.800781 22.515625 0 L 10.703125 0 C 10.015625 -1.113281 9.523438 -2.164062 9.234375 -3.15625 C 8.941406 -4.144531 8.796875 -5.070312 8.796875 -5.9375 C 8.796875 -7.125 9 -8.207031 9.40625 -9.1875 C 9.8125 -10.175781 10.320312 -11.078125 10.9375 -11.890625 C 11.5625 -12.710938 12.175781 -13.445312 12.78125 -14.09375 C 13.382812 -14.75 13.890625 -15.332031 14.296875 -15.84375 C 14.710938 -16.351562 14.921875 -16.804688 14.921875 -17.203125 C 14.921875 -17.585938 14.785156 -17.835938 14.515625 -17.953125 C 14.253906 -18.066406 13.96875 -18.125 13.65625 -18.125 C 13.132812 -18.125 12.488281 -18.003906 11.71875 -17.765625 C 10.957031 -17.523438 10.175781 -17.148438 9.375 -16.640625 C 8.570312 -16.140625 7.8125 -15.5 7.09375 -14.71875 C 6.382812 -13.945312 5.804688 -13.039062 5.359375 -12 C 4.921875 -10.96875 4.703125 -9.785156 4.703125 -8.453125 C 4.703125 -7.273438 4.914062 -5.984375 5.34375 -4.578125 C 5.78125 -3.179688 6.507812 -1.65625 7.53125 0 Z M 0.625 0 "/></g></g></g></g></g></g><g clip-path="url(#66d1ce3b4b)"><g transform="matrix(1, 0, 0, 1, 29, -0.000000000000001776)"><g clip-path="url(#5980b1273a)"><g clip-path="url(#fcb1e1d62d)"><path fill="#f8c193" d="M 0.46875 0.542969 L 3.378906 0.542969 L 3.378906 12.03125 L 0.46875 12.03125 Z M 0.46875 0.542969 " fill-opacity="1" fill-rule="nonzero"/></g></g></g></g><g clip-path="url(#38692d1ab4)"><g clip-path="url(#e3e48ec897)"><g transform="matrix(1, 0, 0, 1, 25, 2)"><g clip-path="url(#f92089763a)"><g clip-path="url(#b6dd76ccd8)"><g clip-path="url(#d9d9760c6a)"><path fill="#f8c193" d="M 0.230469 2.644531 L 1.699219 0.132812 L 11.621094 5.921875 L 10.15625 8.4375 Z M 0.230469 2.644531 " fill-opacity="1" fill-rule="nonzero"/></g></g></g></g></g></g><g clip-path="url(#32e16cd9c4)"><g clip-path="url(#c09f23fe2f)"><g transform="matrix(1, 0, 0, 1, 25, 2)"><g clip-path="url(#6bb73ae978)"><g clip-path="url(#77ba1d2627)"><g clip-path="url(#a4c51ff69f)"><path fill="#f8c193" d="M 10.171875 0.132812 L 11.625 2.652344 L 1.671875 8.394531 L 0.21875 5.875 Z M 10.171875 0.132812 " fill-opacity="1" fill-rule="nonzero"/></g></g></g></g></g></g></g></g></svg>